<svg width="128" height="30" viewBox="0 0 128 30" fill="none" xmlns="http://www.w3.org/2000/svg">
<path d="M30 14.1549C30 14.2758 30 14.3832 29.9866 14.5042C29.9866 14.5445 29.9866 14.5848 29.9732 14.6251C29.9732 14.7057 29.9597 14.7728 29.9597 14.8534C29.9597 14.8937 29.9463 14.9475 29.9463 14.9878C29.9463 15.0549 29.9329 15.1221 29.9195 15.1893C29.9195 15.243 29.906 15.2833 29.906 15.337C29.8926 15.4042 29.8926 15.4579 29.8792 15.5251C29.8658 15.5789 29.8658 15.6192 29.8524 15.6729C29.8389 15.7266 29.8255 15.7938 29.8121 15.8475C29.7987 15.9013 29.7852 15.9416 29.7852 15.9953C29.7718 16.049 29.7584 16.1028 29.745 16.1565C29.7315 16.2102 29.7181 16.2505 29.7047 16.3043C29.6913 16.358 29.6779 16.4117 29.6644 16.4655C29.651 16.5192 29.6376 16.5595 29.6242 16.6133C29.6107 16.667 29.5839 16.7207 29.5705 16.761C29.5571 16.8148 29.5302 16.8551 29.5168 16.9088C29.5034 16.9625 29.4765 17.0028 29.4631 17.0566C29.4497 17.1103 29.4228 17.1506 29.4094 17.2043C29.396 17.2446 29.3691 17.2984 29.3423 17.3387C29.3154 17.3924 29.302 17.4327 29.2752 17.4864C29.2483 17.5268 29.2349 17.5671 29.2081 17.6074C29.1812 17.6611 29.1544 17.7014 29.1275 17.7551C29.1007 17.7954 29.0872 17.8357 29.0604 17.8626C29.0336 17.9163 29.0067 17.9566 28.9799 18.0104C28.9664 18.0372 28.9396 18.0775 28.9262 18.1044C28.8993 18.1581 28.8591 18.2119 28.8188 18.2656C28.7114 18.4134 28.604 18.5611 28.4832 18.7089V18.7224C28.443 18.7761 28.3893 18.8298 28.3356 18.8836C28.3221 18.897 28.3087 18.9239 28.2819 18.9373C28.2416 18.991 28.1879 19.0313 28.1477 19.0851C28.1208 19.1119 28.1074 19.1254 28.0805 19.1522C28.0403 19.1925 27.9866 19.2463 27.9329 19.2866C27.906 19.3134 27.8926 19.3269 27.8658 19.3537C27.8121 19.394 27.7718 19.4343 27.7181 19.4746C27.6913 19.4881 27.6644 19.5149 27.651 19.5284C27.5973 19.5687 27.5436 19.609 27.5034 19.6493C27.4765 19.6627 27.4497 19.6896 27.4228 19.703C27.3691 19.7433 27.3154 19.7836 27.2617 19.8105C27.2349 19.8239 27.2081 19.8374 27.1812 19.8642C27.1275 19.9045 27.0738 19.9314 27.0201 19.9717C26.9933 19.9851 26.9664 19.9986 26.9396 20.012C26.8859 20.0523 26.8188 20.0792 26.7651 20.106C26.7383 20.1195 26.7114 20.1329 26.698 20.1463C26.6309 20.1732 26.5772 20.2135 26.5101 20.2404C26.4832 20.2538 26.4698 20.2538 26.443 20.2672C26.3758 20.2941 26.3087 20.321 26.2416 20.3613C26.2282 20.3747 26.2013 20.3747 26.1879 20.3881C26.1074 20.415 26.0403 20.4419 25.9597 20.4687L25.9329 20.4822C25.2752 20.7106 24.5638 20.8315 23.7987 20.8315C21.6376 20.8315 19.4631 19.7299 16.3221 16.8416C16.2282 16.7476 16.2148 16.5998 16.3087 16.5058L17.2752 15.5386C17.3691 15.4445 17.5034 15.4445 17.5973 15.5386C20.1074 17.8357 22.0403 18.9104 23.745 18.9104C23.9866 18.9104 24.2282 18.897 24.4564 18.8567C24.7114 18.8164 24.9664 18.7492 25.2081 18.6686H25.2215C25.3289 18.6283 25.4497 18.588 25.5571 18.5343L25.5839 18.5208C25.6913 18.4671 25.7987 18.4134 25.8926 18.3596L25.9195 18.3462C26.0268 18.2925 26.1208 18.2253 26.2148 18.1581C26.4161 18.0104 26.5906 17.8626 26.7517 17.6745L26.7651 17.6611C26.8456 17.5805 26.9128 17.4864 26.9933 17.3924L27.0201 17.3521C27.0873 17.2581 27.1544 17.164 27.2215 17.07L27.2483 17.0297C27.3154 16.9357 27.3691 16.8282 27.4228 16.7207L27.4362 16.6939C27.5436 16.4789 27.651 16.2371 27.7181 15.9953L27.7315 15.955C27.7718 15.8341 27.7987 15.7132 27.8255 15.5923C27.8255 15.5789 27.8389 15.552 27.8389 15.5386C27.8658 15.4176 27.8926 15.2967 27.906 15.1624C27.906 15.1355 27.906 15.1221 27.9195 15.0952C27.9329 14.9609 27.9463 14.84 27.9597 14.7057C27.9597 14.6922 27.9597 14.6788 27.9597 14.6519C27.9732 14.5176 27.9732 14.3698 27.9732 14.222C27.9732 11.7771 26.6309 9.9501 24.7114 9.53366C24.443 9.47992 24.1477 9.43962 23.8524 9.43962C22.5906 9.43962 21.3154 9.92324 19.557 11.28C18.6309 11.992 17.557 12.9593 16.2685 14.2489L16.255 14.2623L16.2416 14.2758C16.1074 14.4235 15.1141 15.4579 14.9799 15.5923C11.745 18.8298 9.48993 20.3344 7.39597 20.7374C7.00671 20.8046 6.61745 20.8449 6.24161 20.8449C5.90604 20.8449 5.57047 20.818 5.24832 20.7777C2.13423 20.321 0 17.7417 0 14.222C0 10.2994 2.60403 7.50516 6.18792 7.50516C6.7651 7.50516 7.34228 7.58576 7.91946 7.7604C8.20134 7.841 8.48322 7.6798 8.56376 7.39769C8.9396 6.12148 9.69128 5.06021 10.7248 4.29449C10.7651 4.26762 10.7785 4.21389 10.7651 4.17358L10.3758 3.15262C10.3624 3.12575 10.3356 3.09888 10.3087 3.08545C9.71812 2.91081 9.24832 2.38689 9.18121 1.72864C9.10067 0.868878 9.73154 0.0897186 10.5906 0.009116C11.4497 -0.0714866 12.2282 0.5599 12.3087 1.41966C12.349 1.78237 12.255 2.13165 12.0671 2.41376C12.0537 2.44063 12.0403 2.48093 12.0537 2.5078L12.349 3.31382C12.3758 3.36756 12.4295 3.39443 12.4832 3.38099C13.2215 3.13918 14.0268 3.00485 14.8993 3.00485C15.7987 3.00485 16.6443 3.13919 17.4094 3.39443C17.4631 3.40786 17.5302 3.38099 17.5436 3.32726L17.8524 2.5078C17.8658 2.48093 17.8658 2.44063 17.8389 2.41376C17.6644 2.13165 17.5705 1.78237 17.5973 1.41966C17.6779 0.5599 18.4564 -0.0849204 19.3154 0.009116C20.1745 0.0897186 20.8188 0.868878 20.7248 1.72864C20.6577 2.38689 20.2013 2.91081 19.5973 3.08545C19.5705 3.09888 19.5436 3.11232 19.5302 3.15262L19.1409 4.20045C19.1275 4.24075 19.1409 4.29449 19.1812 4.32136C19.7987 4.76467 20.3087 5.31546 20.698 5.94684C20.8591 6.21552 20.7651 6.57823 20.4832 6.69913C20.2282 6.82004 19.9597 6.95438 19.6913 7.11558C19.4631 7.24992 19.1409 7.18275 18.9933 6.95438C18.1879 5.78564 16.7114 5.03335 14.8859 5.03335C12.255 5.03335 10.4295 6.59166 10.2282 8.86197C10.2013 9.89637 10.5235 10.8905 10.6846 11.3338C10.7114 11.4144 10.698 11.5219 10.5772 11.4278C10.1611 11.1323 9.22148 10.474 8.55034 10.0576L8.51007 10.0307C8.44295 9.99041 8.37584 9.96354 8.30872 9.93667C7.51678 9.57396 6.81879 9.42619 6.10738 9.42619H6.09396C4.7651 9.42619 3.63758 10.0576 2.91275 11.1054V11.1188C2.87248 11.1726 2.83221 11.2263 2.80537 11.2935L2.79195 11.3069C2.75168 11.3607 2.72483 11.4144 2.68456 11.4816L2.67114 11.495C2.64429 11.5487 2.60403 11.6159 2.57718 11.6696L2.56376 11.6965C2.53691 11.7502 2.51007 11.8174 2.48322 11.8711L2.4698 11.898C2.44295 11.9517 2.41611 12.0189 2.38926 12.0726L2.37584 12.1129C2.34899 12.1667 2.33557 12.2338 2.30872 12.2876C2.30872 12.301 2.2953 12.3144 2.2953 12.3279C2.28188 12.3816 2.25503 12.4488 2.24161 12.5025C2.24161 12.5294 2.22819 12.5428 2.22819 12.5697C2.21477 12.6234 2.20134 12.6772 2.18792 12.7309C2.18792 12.7578 2.1745 12.7712 2.1745 12.7981C2.16107 12.8518 2.14765 12.9055 2.13423 12.9727C2.13423 12.9996 2.12081 13.0264 2.12081 13.0399C2.10738 13.0936 2.09396 13.1473 2.09396 13.2011C2.09396 13.2279 2.08054 13.2548 2.08054 13.2817C2.06711 13.3354 2.06711 13.3891 2.05369 13.4429C2.05369 13.4698 2.05369 13.5101 2.04027 13.5369C2.04027 13.5907 2.02685 13.6444 2.02685 13.6847C2.02685 13.725 2.02685 13.7653 2.01342 13.7922C2.01342 13.8325 2.01342 13.8862 2 13.9265C2 14.0071 2 14.0877 2 14.1549V14.1817C2 16.976 3.74497 18.8701 6.25503 18.8701C8.24161 18.8701 10.5503 17.4461 13.7181 14.2355C13.906 14.034 14.7651 13.1339 14.953 12.9593C18.7383 9.03661 21.2349 7.47829 23.7852 7.47829C27.4497 7.43799 30 10.2322 30 14.1549ZM22.4161 22.6181C22.4161 22.6853 22.4027 22.7525 22.349 22.8062L15.2617 29.8993C15.1275 30.0336 14.9128 30.0336 14.7785 29.8993L7.75839 22.86C7.75839 22.86 7.74497 22.8465 7.73154 22.8465H7.71812C7.7047 22.8331 7.69128 22.8331 7.69128 22.8197C7.66443 22.7794 7.65101 22.7256 7.65101 22.6719V22.6584C7.65101 22.645 7.65101 22.6316 7.65101 22.6181C7.65101 22.6181 7.65101 22.6181 7.65101 22.6047C7.66443 22.551 7.69128 22.4972 7.74497 22.4569C7.93289 22.3092 8.18792 22.1211 8.48322 21.933C8.89933 21.6509 9.42282 21.3419 10.0403 21.0464C11.2752 20.4687 12.8993 19.9448 14.8322 19.9045C14.9128 19.9045 14.9933 19.9045 15.0872 19.9045C16.5772 19.9045 17.8926 20.1866 18.9799 20.5762C20.0805 20.9658 20.9664 21.4494 21.5973 21.8659C21.8926 22.0539 22.1342 22.2286 22.3221 22.3763C22.3893 22.4301 22.4295 22.5241 22.4161 22.6181ZM11.651 22.3226C11.2215 22.4838 10.8322 22.6584 10.4832 22.8331C10.4161 22.86 10.4027 22.954 10.4564 23.0077L11.745 24.2974C11.7852 24.3377 11.8389 24.3377 11.8792 24.3108C12.0403 24.2033 12.2282 24.0959 12.4698 23.975C13.0738 23.6794 13.9329 23.3973 14.9933 23.3973C15.0872 23.3973 15.1812 23.3973 15.2617 23.3973C16.1074 23.4376 16.8054 23.6391 17.3289 23.8809C17.6644 24.0287 17.9195 24.1899 18.1208 24.3242C18.1611 24.3511 18.2148 24.3511 18.255 24.3108L19.6107 22.954C19.6644 22.9003 19.651 22.8197 19.5839 22.7794C19.4765 22.7256 19.3557 22.6719 19.2349 22.6181C18.1477 22.1211 16.7383 21.6912 15.0604 21.6912C14.9933 21.6912 14.9262 21.6912 14.8456 21.6912C13.6376 21.7315 12.5638 21.9868 11.651 22.3226ZM15.2617 27.3334L16.7919 25.802C16.8456 25.7482 16.8322 25.6676 16.7651 25.6273C16.7517 25.6273 16.7517 25.6139 16.7383 25.6139C16.3758 25.4258 15.8523 25.2512 15.1812 25.2243C15.1141 25.2243 15.047 25.2243 14.9933 25.2243C14.255 25.2243 13.6779 25.4124 13.2617 25.6139C13.1946 25.6407 13.1812 25.7348 13.2349 25.7885L14.7919 27.3468C14.9128 27.4677 15.1275 27.4677 15.2617 27.3334Z" fill="url(#paint0_linear_3_497)"/>
<path d="M47.198 13.041H44.5945V24.7695H41.6591V13.041H40V10.6594H41.6591V9.66069C41.6591 8.03884 42.0845 6.86086 42.9354 6.12676C43.8032 5.37559 45.156 5 46.9938 5V7.43278C46.109 7.43278 45.4879 7.6035 45.1305 7.94494C44.7732 8.26931 44.5945 8.84123 44.5945 9.66069V10.6594H47.198V13.041Z" fill="url(#paint1_linear_3_497)"/>
<path d="M51.2573 8.79001C50.7298 8.79001 50.2874 8.61076 49.93 8.25224C49.5727 7.89373 49.394 7.44985 49.394 6.92061C49.394 6.39138 49.5727 5.9475 49.93 5.58899C50.2874 5.23047 50.7298 5.05122 51.2573 5.05122C51.7678 5.05122 52.2017 5.23047 52.5591 5.58899C52.9164 5.9475 53.0951 6.39138 53.0951 6.92061C53.0951 7.44985 52.9164 7.89373 52.5591 8.25224C52.2017 8.61076 51.7678 8.79001 51.2573 8.79001ZM52.6867 10.6594V24.7695H49.7769V10.6594H52.6867Z" fill="url(#paint2_linear_3_497)"/>
<path d="M59.4169 12.7081C59.8424 11.991 60.4039 11.4362 61.1016 11.0435C61.8163 10.6338 62.6586 10.4289 63.6286 10.4289V13.4507H62.8883C61.7482 13.4507 60.8804 13.7409 60.2848 14.3214C59.7062 14.9018 59.4169 15.9091 59.4169 17.3432V24.7695H56.5071V10.6594H59.4169V12.7081Z" fill="url(#paint3_linear_3_497)"/>
<path d="M79.1934 17.3688C79.1934 17.898 79.1594 18.376 79.0913 18.8028H68.3453C68.4304 19.9296 68.8473 20.8344 69.596 21.5173C70.3448 22.2002 71.2637 22.5416 72.3527 22.5416C73.9183 22.5416 75.0243 21.8843 75.671 20.5698H78.8106C78.3851 21.8673 77.6109 22.9343 76.4878 23.7708C75.3817 24.5903 74.0033 25 72.3527 25C71.0084 25 69.8002 24.7012 68.7282 24.1037C67.6731 23.4891 66.8393 22.6355 66.2267 21.5429C65.6311 20.4332 65.3334 19.1528 65.3334 17.7017C65.3334 16.2505 65.6226 14.9787 66.2012 13.886C66.7968 12.7764 67.6221 11.9227 68.6771 11.3252C69.7492 10.7277 70.9744 10.4289 72.3527 10.4289C73.68 10.4289 74.8627 10.7192 75.9007 11.2996C76.9387 11.8801 77.747 12.6995 78.3256 13.758C78.9041 14.7994 79.1934 16.003 79.1934 17.3688ZM76.156 16.4469C76.1389 15.3713 75.7561 14.5092 75.0073 13.8604C74.2586 13.2117 73.3312 12.8873 72.2251 12.8873C71.2211 12.8873 70.3618 13.2117 69.6471 13.8604C68.9324 14.4921 68.507 15.3542 68.3708 16.4469H76.156Z" fill="url(#paint4_linear_3_497)"/>
<path d="M84.9669 12.7593C85.4603 12.0764 86.1325 11.5216 86.9833 11.0948C87.8512 10.6509 88.8126 10.4289 89.8677 10.4289C91.1099 10.4289 92.233 10.7277 93.237 11.3252C94.2409 11.9227 95.0322 12.7764 95.6108 13.886C96.1894 14.9787 96.4786 16.2335 96.4786 17.6504C96.4786 19.0674 96.1894 20.3393 95.6108 21.4661C95.0322 22.5758 94.2324 23.4464 93.2114 24.0781C92.2075 24.6927 91.0929 25 89.8677 25C88.7786 25 87.8086 24.7866 86.9578 24.3598C86.124 23.933 85.4603 23.3867 84.9669 22.7209V24.7695H82.057V5.81946H84.9669V12.7593ZM93.5177 17.6504C93.5177 16.6773 93.3135 15.8408 92.9051 15.1408C92.5137 14.4238 91.9862 13.886 91.3226 13.5275C90.676 13.1519 89.9783 12.9641 89.2295 12.9641C88.4978 12.9641 87.8001 13.1519 87.1365 13.5275C86.4899 13.9031 85.9623 14.4494 85.5539 15.1665C85.1626 15.8835 84.9669 16.7286 84.9669 17.7017C84.9669 18.6748 85.1626 19.5284 85.5539 20.2625C85.9623 20.9795 86.4899 21.5258 87.1365 21.9014C87.8001 22.277 88.4978 22.4648 89.2295 22.4648C89.9783 22.4648 90.676 22.277 91.3226 21.9014C91.9862 21.5087 92.5137 20.9454 92.9051 20.2113C93.3135 19.4772 93.5177 18.6236 93.5177 17.6504Z" fill="url(#paint5_linear_3_497)"/>
<path d="M112.246 17.3688C112.246 17.898 112.212 18.376 112.144 18.8028H101.398C101.483 19.9296 101.9 20.8344 102.649 21.5173C103.398 22.2002 104.317 22.5416 105.406 22.5416C106.971 22.5416 108.077 21.8843 108.724 20.5698H111.863C111.438 21.8673 110.664 22.9343 109.541 23.7708C108.435 24.5903 107.056 25 105.406 25C104.061 25 102.853 24.7012 101.781 24.1037C100.726 23.4891 99.8922 22.6355 99.2796 21.5429C98.684 20.4332 98.3862 19.1528 98.3862 17.7017C98.3862 16.2505 98.6755 14.9787 99.2541 13.886C99.8497 12.7764 100.675 11.9227 101.73 11.3252C102.802 10.7277 104.027 10.4289 105.406 10.4289C106.733 10.4289 107.916 10.7192 108.954 11.2996C109.992 11.8801 110.8 12.6995 111.378 13.758C111.957 14.7994 112.246 16.003 112.246 17.3688ZM109.209 16.4469C109.192 15.3713 108.809 14.5092 108.06 13.8604C107.311 13.2117 106.384 12.8873 105.278 12.8873C104.274 12.8873 103.415 13.2117 102.7 13.8604C101.985 14.4921 101.56 15.3542 101.424 16.4469H109.209Z" fill="url(#paint6_linear_3_497)"/>
<path d="M128 17.3688C128 17.898 127.966 18.376 127.898 18.8028H117.152C117.237 19.9296 117.654 20.8344 118.403 21.5173C119.151 22.2002 120.07 22.5416 121.159 22.5416C122.725 22.5416 123.831 21.8843 124.478 20.5698H127.617C127.192 21.8673 126.417 22.9343 125.294 23.7708C124.188 24.5903 122.81 25 121.159 25C119.815 25 118.607 24.7012 117.535 24.1037C116.48 23.4891 115.646 22.6355 115.033 21.5429C114.438 20.4332 114.14 19.1528 114.14 17.7017C114.14 16.2505 114.429 14.9787 115.008 13.886C115.603 12.7764 116.429 11.9227 117.484 11.3252C118.556 10.7277 119.781 10.4289 121.159 10.4289C122.487 10.4289 123.669 10.7192 124.707 11.2996C125.745 11.8801 126.554 12.6995 127.132 13.758C127.711 14.7994 128 16.003 128 17.3688ZM124.963 16.4469C124.946 15.3713 124.563 14.5092 123.814 13.8604C123.065 13.2117 122.138 12.8873 121.032 12.8873C120.028 12.8873 119.168 13.2117 118.454 13.8604C117.739 14.4921 117.314 15.3542 117.177 16.4469H124.963Z" fill="url(#paint7_linear_3_497)"/>
<defs>
<linearGradient id="paint0_linear_3_497" x1="4.34745" y1="21.9747" x2="24.6326" y2="4.96735" gradientUnits="userSpaceOnUse">
<stop stop-color="#459CD6"/>
<stop offset="0.2019" stop-color="#4D91CE"/>
<stop offset="0.5539" stop-color="#6575BB"/>
<stop offset="1" stop-color="#89489C"/>
</linearGradient>
<linearGradient id="paint1_linear_3_497" x1="39.9915" y1="15.0009" x2="128" y2="15.0009" gradientUnits="userSpaceOnUse">
<stop stop-color="#459CD6"/>
<stop offset="0.2127" stop-color="#4898D3"/>
<stop offset="0.4331" stop-color="#528BCA"/>
<stop offset="0.6571" stop-color="#6377BC"/>
<stop offset="0.882" stop-color="#7B5AA8"/>
<stop offset="1" stop-color="#89489C"/>
</linearGradient>
<linearGradient id="paint2_linear_3_497" x1="39.9915" y1="15.0009" x2="128" y2="15.0009" gradientUnits="userSpaceOnUse">
<stop stop-color="#459CD6"/>
<stop offset="0.2127" stop-color="#4898D3"/>
<stop offset="0.4331" stop-color="#528BCA"/>
<stop offset="0.6571" stop-color="#6377BC"/>
<stop offset="0.882" stop-color="#7B5AA8"/>
<stop offset="1" stop-color="#89489C"/>
</linearGradient>
<linearGradient id="paint3_linear_3_497" x1="39.9915" y1="15.0009" x2="128" y2="15.0009" gradientUnits="userSpaceOnUse">
<stop stop-color="#459CD6"/>
<stop offset="0.2127" stop-color="#4898D3"/>
<stop offset="0.4331" stop-color="#528BCA"/>
<stop offset="0.6571" stop-color="#6377BC"/>
<stop offset="0.882" stop-color="#7B5AA8"/>
<stop offset="1" stop-color="#89489C"/>
</linearGradient>
<linearGradient id="paint4_linear_3_497" x1="39.9915" y1="15.0009" x2="128" y2="15.0009" gradientUnits="userSpaceOnUse">
<stop stop-color="#459CD6"/>
<stop offset="0.2127" stop-color="#4898D3"/>
<stop offset="0.4331" stop-color="#528BCA"/>
<stop offset="0.6571" stop-color="#6377BC"/>
<stop offset="0.882" stop-color="#7B5AA8"/>
<stop offset="1" stop-color="#89489C"/>
</linearGradient>
<linearGradient id="paint5_linear_3_497" x1="39.9915" y1="15.0009" x2="128" y2="15.0009" gradientUnits="userSpaceOnUse">
<stop stop-color="#459CD6"/>
<stop offset="0.2127" stop-color="#4898D3"/>
<stop offset="0.4331" stop-color="#528BCA"/>
<stop offset="0.6571" stop-color="#6377BC"/>
<stop offset="0.882" stop-color="#7B5AA8"/>
<stop offset="1" stop-color="#89489C"/>
</linearGradient>
<linearGradient id="paint6_linear_3_497" x1="39.9915" y1="15.0009" x2="128" y2="15.0009" gradientUnits="userSpaceOnUse">
<stop stop-color="#459CD6"/>
<stop offset="0.2127" stop-color="#4898D3"/>
<stop offset="0.4331" stop-color="#528BCA"/>
<stop offset="0.6571" stop-color="#6377BC"/>
<stop offset="0.882" stop-color="#7B5AA8"/>
<stop offset="1" stop-color="#89489C"/>
</linearGradient>
<linearGradient id="paint7_linear_3_497" x1="39.9915" y1="15.0009" x2="128" y2="15.0009" gradientUnits="userSpaceOnUse">
<stop stop-color="#459CD6"/>
<stop offset="0.2127" stop-color="#4898D3"/>
<stop offset="0.4331" stop-color="#528BCA"/>
<stop offset="0.6571" stop-color="#6377BC"/>
<stop offset="0.882" stop-color="#7B5AA8"/>
<stop offset="1" stop-color="#89489C"/>
</linearGradient>
</defs>
</svg>
